# xmcd
# Copyright (C) 1995-1998 Ti Kan
#
# Track frame offsets:
#       150
#       18649
#       37789
#       52735
#       73993
#       94614
#       112232
#       136101
#
# Disc length: 1949 seconds
#
# Revision: 0
# Processed by: cddbd v1.5.2PL0 Copyright (c) Steve Scherf et al.
# Submitted via: CD-Transfer v1.0
#
DISCID=65079b08
DTITLE=Funk Chilli - Loving For Today
DYEAR=07
DGENRE=
TTITLE0=Acid Funk
TTITLE1=Souled Out
TTITLE2=Space Cowboy
TTITLE3=Sunshine
TTITLE4=Don´t You Worry `bout A Thing
TTITLE5=Loving 4 Today
TTITLE6=Jealousy
TTITLE7=Always There
EXTD=
EXTT0=
EXTT1=
EXTT2=
EXTT3=
EXTT4=
EXTT5=
EXTT6=
EXTT7=
PLAYORDER=
